<?xml version="1.0" standalone="no"?>
<!DOCTYPE svg PUBLIC "-//W3C//DTD SVG 20010904//EN"
 "http://www.w3.org/TR/2001/REC-SVG-20010904/DTD/svg10.dtd">
<svg version="1.0" xmlns="http://www.w3.org/2000/svg"
 width="794.000000pt" height="1000.000000pt" viewBox="0 0 794.000000 1000.000000"
 preserveAspectRatio="xMidYMid meet">

<g transform="translate(0.000000,1000.000000) scale(0.100000,-0.100000)"
fill="#000000" stroke="none">
<path d="M3793 9738 c17 -49 29 -203 23 -303 -19 -346 -188 -700 -525 -1100
-88 -104 -348 -367 -538 -544 -140 -129 -216 -215 -303 -345 -305 -455 -372
-1051 -190 -1683 106 -367 369 -698 726 -914 196 -118 458 -223 656 -264 391
-79 746 -44 1115 111 385 161 672 393 883 714 209 319 304 712 272 1127 -28
369 -126 666 -309 943 -93 139 -274 325 -438 450 -131 99 -316 281 -370 365
-54 82 -87 168 -93 242 l-5 62 -38 -47 c-52 -62 -112 -187 -143 -294 -48 -166
-58 -275 -55 -608 3 -352 0 -370 -81 -535 -57 -116 -131 -217 -255 -352 -49
-53 -80 -93 -69 -90 10 3 46 11 79 17 289 57 507 202 604 401 22 47 41 93 41
102 0 28 13 20 64 -40 121 -143 207 -305 253 -481 22 -84 26 -117 26 -252 0
-184 -22 -283 -97 -444 -204 -437 -565 -655 -1049 -633 -119 5 -219 29 -367
88 -87 35 -210 105 -260 148 -27 24 -15 19 49 -19 97 -58 206 -101 334 -135
122 -31 219 -38 352 -26 429 41 719 260 894 674 22 51 42 107 46 125 l7 32
-64 0 -63 0 -24 -56 c-68 -157 -240 -362 -385 -458 -159 -105 -385 -166 -617
-166 -189 0 -442 83 -620 202 -190 127 -240 207 -311 493 -18 72 -22 118 -21
230 0 165 18 246 86 389 76 160 157 253 419 484 160 141 330 320 428 449 133
177 260 455 317 693 34 143 43 383 19 520 -35 201 -121 393 -256 572 -78 103
-158 189 -147 156z"/>
<path d="M2060 6225 c0 -14 53 -227 70 -282 21 -68 61 -165 66 -161 1 2 -10
55 -27 118 -16 63 -37 163 -46 222 -17 100 -20 108 -40 108 -13 0 -23 -2 -23
-5z"/>
<path d="M2810 3926 l0 -326 410 0 410 0 0 -1190 0 -1190 335 0 335 0 0 1190
0 1190 410 0 410 0 0 326 0 326 -22 -6 c-123 -34 -505 -87 -753 -106 -179 -13
-570 -13 -750 0 -242 18 -540 60 -757 106 l-28 6 0 -326z"/>
<path d="M1338 4149 c-606 -59 -1074 -414 -1252 -951 -91 -273 -108 -591 -46
-869 127 -579 572 -1005 1163 -1116 129 -25 505 -24 667 0 261 40 450 107 648
230 l82 52 0 617 0 618 -515 0 -515 0 0 -208 c0 -287 -4 -282 255 -282 l165 0
0 -224 0 -224 -78 -26 c-188 -63 -422 -76 -594 -32 -411 104 -649 485 -625
1001 12 266 88 470 236 627 160 171 338 241 611 239 229 -1 366 -38 563 -151
133 -76 202 -83 273 -28 26 21 234 329 234 347 0 13 -109 98 -198 156 -280
180 -675 262 -1074 224z"/>
<path d="M5400 2676 l0 -1456 295 0 296 0 -3 920 c-2 684 0 916 8 907 7 -7
312 -392 679 -857 367 -465 684 -862 704 -883 73 -78 88 -81 339 -85 l222 -4
0 1456 0 1456 -295 0 -296 0 3 -923 3 -922 -689 870 c-378 478 -702 885 -720
904 -56 60 -77 65 -323 69 l-223 4 0 -1456z"/>
<path d="M1179 417 c-149 -79 -140 -348 14 -406 65 -25 197 -2 221 38 13 20
-15 21 -40 2 -60 -47 -176 -32 -228 30 -75 89 -49 263 47 312 51 26 126 25
172 -2 43 -25 45 -25 45 -6 0 24 -78 55 -136 55 -34 0 -65 -8 -95 -23z"/>
<path d="M1610 220 c0 -189 2 -220 15 -220 12 0 15 18 15 101 l0 100 37 -3
c34 -3 44 -11 112 -98 40 -52 82 -96 93 -98 15 -3 4 17 -43 77 -101 128 -96
118 -57 134 51 21 78 61 78 114 0 77 -60 113 -187 113 l-63 0 0 -220z m179
175 c32 -16 41 -33 41 -76 0 -66 -45 -99 -135 -99 l-55 0 0 95 0 95 60 0 c34
0 74 -7 89 -15z"/>
<path d="M2060 220 l0 -220 125 0 c104 0 125 2 125 15 0 12 -19 15 -110 15
l-110 0 0 90 0 90 90 0 c53 0 90 4 90 10 0 6 -37 10 -90 10 l-90 0 0 90 0 90
110 0 c91 0 110 3 110 15 0 13 -21 15 -125 15 l-125 0 0 -220z"/>
<path d="M2601 418 c-5 -13 -43 -110 -85 -216 -42 -106 -76 -195 -76 -197 0
-3 6 -5 14 -5 8 0 24 29 39 67 l25 68 104 3 105 3 27 -71 c17 -44 33 -70 43
-70 8 0 13 6 10 13 -3 6 -42 105 -87 220 -82 208 -99 235 -119 185z m27 -256
c-50 -1 -92 -1 -94 1 -2 2 17 56 43 120 l47 118 47 -118 47 -118 -90 -3z"/>
<path d="M2877 433 c-18 -17 -1 -23 68 -23 l75 0 0 -205 c0 -176 2 -205 15
-205 13 0 15 29 15 205 l0 205 75 0 c60 0 75 3 75 15 0 13 -24 15 -158 15 -87
0 -162 -3 -165 -7z"/>
<path d="M3370 220 c0 -189 2 -220 15 -220 13 0 15 31 15 220 0 189 -2 220
-15 220 -13 0 -15 -31 -15 -220z"/>
<path d="M3620 220 c0 -137 4 -220 10 -220 6 0 11 75 12 192 l3 192 139 -192
c77 -106 143 -192 148 -192 4 0 8 99 8 220 0 137 -4 220 -10 220 -6 0 -11 -75
-12 -192 l-3 -192 -139 192 c-77 106 -143 192 -148 192 -4 0 -8 -99 -8 -220z"/>
<path d="M4245 421 c-78 -36 -115 -102 -115 -205 0 -88 37 -160 99 -193 57
-30 156 -31 219 -3 l42 19 0 81 0 80 -55 0 c-42 0 -55 -3 -55 -15 0 -11 12
-15 45 -15 l45 0 0 -55 0 -56 -42 -19 c-94 -43 -202 -12 -245 70 -49 92 -23
224 54 276 57 38 149 39 207 1 22 -15 36 -13 36 4 0 4 -19 17 -43 28 -55 27
-137 27 -192 2z"/>
<path d="M4753 408 c7 -18 47 -117 88 -221 52 -132 78 -186 88 -185 14 3 179
394 181 426 0 8 -5 12 -12 10 -7 -3 -43 -81 -80 -174 -37 -93 -73 -180 -79
-194 -10 -23 -18 -8 -89 170 -53 132 -83 196 -94 198 -15 3 -16 0 -3 -30z"/>
<path d="M5286 270 c-112 -281 -109 -272 -90 -268 10 2 26 26 38 60 12 32 27
63 32 68 7 7 50 10 109 8 l98 -3 26 -67 c14 -38 32 -68 38 -68 7 0 13 3 13 8
0 4 -38 101 -83 217 -51 128 -89 211 -98 213 -11 2 -34 -46 -83 -168z m125 23
c23 -60 44 -114 46 -120 4 -10 -18 -13 -90 -13 l-95 0 47 120 c25 66 47 120
48 120 1 0 20 -48 44 -107z"/>
<path d="M5710 220 l0 -220 116 0 c88 0 115 3 112 13 -3 8 -36 13 -106 15
l-102 3 0 204 c0 130 -4 205 -10 205 -6 0 -10 -80 -10 -220z"/>
<path d="M6090 283 c0 -181 13 -227 72 -263 45 -27 129 -27 174 0 61 38 74 85
74 263 0 133 -2 157 -15 157 -13 0 -15 -24 -15 -158 0 -133 -3 -163 -18 -191
-50 -93 -188 -90 -228 4 -10 25 -14 78 -14 190 0 131 -2 155 -15 155 -13 0
-15 -24 -15 -157z"/>
<path d="M6617 433 c-4 -3 -7 -102 -7 -220 l0 -213 131 0 c100 0 130 3 127 13
-3 8 -38 13 -116 15 l-112 3 0 89 0 90 95 0 c123 0 125 18 3 22 l-93 3 -3 88
-3 87 116 0 c96 0 115 3 115 15 0 13 -20 15 -123 15 -68 0 -127 -3 -130 -7z"/>
</g>
</svg>
