<?xml version="1.0" encoding="UTF-8"?>
<svg id="Layer_1" data-name="Layer 1" xmlns="http://www.w3.org/2000/svg" viewBox="0 0 4251.97 3986.59">
  <defs>
    <style>
      .cls-1 {
        fill: #9ccf85;
      }

      .cls-2 {
        fill: #f58220;
      }

      .cls-3 {
        fill: #e51e25;
      }

      .cls-4 {
        fill: #55b948;
      }

      .cls-5 {
        fill: #e41e26;
      }
    </style>
  </defs>
  <path class="cls-4" d="M2751.18,1982.79c136.61-341.07,262.43-655.22,389.29-971.96-387.61-129.63-772.72-258.43-1194.12-399.37h2305.61c-496.62,453.78-989.42,904.08-1500.79,1371.33Z"/>
  <path class="cls-2" d="M1159.62,2003.32c226.58,286.16,440.08,555.81,653.54,825.4,303.51-271.92,601.72-539.1,930.21-833.41-389.08,681.64-758.17,1328.25-1136.63,1991.28-149.73-664.15-295.88-1312.39-447.13-1983.27Z"/>
  <path class="cls-3" d="M1105.77,1763.93c13.21,63.7,26.42,127.4,46.3,223.28C759.21,1309.56,382.97,660.59,0,0,191.73,58.97,369.66,112.54,546.83,168.47c240.46,75.91,480.34,153.68,720.49,230.58,201.43,64.5,402.8,129.19,604.46,193,23.91,7.57,49.42,10.1,74.18,14.97,0,0,.25-.95,.25-.95-188.14,27.66-376.28,55.33-564.43,82.99-9.16-6.57-17.41-15.93-27.62-19.28-108.16-35.46-214.54-80.43-325.45-102.53-222.83-44.39-448.17-76.16-706.44-118.73,35.7,79.64,47.14,112.66,64.33,142.36,191.64,331.02,382.67,662.4,577.71,991.41,38.82,65.49,93.88,121.35,141.45,181.65Z"/>
  <path class="cls-5" d="M1105.77,1763.93c-47.57-60.3-102.63-116.16-141.45-181.65-195.04-329.01-386.07-660.4-577.71-991.41-17.19-29.69-28.63-62.71-64.33-142.36,258.27,42.57,483.61,74.34,706.44,118.73,110.91,22.1,217.29,67.07,325.45,102.53,10.22,3.35,18.46,12.71,27.62,19.28-159.2,24.25-318.39,48.51-482.45,73.5,68.75,333.51,137.59,667.45,206.43,1001.38Z"/>
  <path class="cls-1" d="M1946.22,606.06s-.25,.95-.25,.95c12.04,0,24.08,0,2.24,0,19.51,9.33,8.76,4.19-1.98-.95Z"/>
</svg>