<svg 
  xmlns="http://www.w3.org/2000/svg"
  viewBox="0 0 90 62" 
  fill="none"
>
  <path d="M89.4835 36.8275L78.1672 56.8734C77.2866 58.4334 76.0257 59.7277 74.5101 60.6272C72.9946 61.5267 71.2773 62 69.5295 62H7.03516C4.14094 62 2.33766 58.7558 3.79594 56.1725L15.1122 36.1266C15.9929 34.5666 17.2538 33.2723 18.7694 32.3728C20.285 31.4733 22.0022 31 23.75 31H86.2444C89.1386 31 90.9419 34.2442 89.4835 36.8275ZM23.75 25.8333H75V18.0833C75 13.8031 71.6422 10.3333 67.5 10.3333H42.5L32.5 0H7.5C3.35781 0 0 3.46974 0 7.75V52.6428L10.7933 33.5233C13.4709 28.7799 18.4358 25.8333 23.75 25.8333Z" fill="black"/>
</svg>