<?xml version="1.0" encoding="utf-8"?>
<!-- Generator: Adobe Illustrator 22.0.1, SVG Export Plug-In . SVG Version: 6.00 Build 0)  -->
<svg version="1.1" id="Layer_1" xmlns="http://www.w3.org/2000/svg" xmlns:xlink="http://www.w3.org/1999/xlink" x="0px" y="0px"
	 viewBox="0 0 283.5 283.5" style="enable-background:new 0 0 283.5 283.5;" xml:space="preserve">
<g>
	<path d="M-486.4-431.5c0-18.1,0.2-36.2-0.1-54.3c-0.1-6.4,2.1-10.2,8.1-12.5c12-4.5,24-9.2,35.9-14.2c3.8-1.6,6.9-1.5,10.7-0.1
		c12.1,4.3,24.4,8,36.6,12.3c4.7,1.6,8.9,1.8,13.5-0.3c8.1-3.5,16.3-6.7,24.5-10c2.8-1.1,5.6-2.5,8.5-3.2c4.6-1.1,9,2,9.8,6.6
		c0.4,2.3,0.2,4.8,0.2,7.2c0,34.5,0,69,0,103.5c0,10.7-0.8,11.9-10.8,15.7c-11,4.3-22.2,8.4-33.1,13c-3.8,1.6-6.9,1.5-10.7,0.1
		c-11.8-4.2-23.9-7.7-35.6-11.9c-5.4-2-10.1-1.9-15.4,0.4c-8.9,4-18.2,7.5-27.4,10.9c-10.7,4-14.7,1.2-14.8-9.9
		C-486.5-396-486.4-413.8-486.4-431.5z M-436.8-399.6c15.9,5.4,32,10.8,48.7,16.4c0-32.8,0-64.7,0-97.6c-15.9-5.3-32-10.7-48.7-16.3
		C-436.8-464.4-436.8-432.4-436.8-399.6z"/>
</g>
<g>
	<path d="M2.9,158.3c0-34,0.4-68.1-0.2-102.1c-0.2-12,3.9-19.3,15.2-23.5C40.5,24.1,63,15.3,85.4,6c7.1-3,13-2.8,20.2-0.3
		c22.8,8.1,45.9,15.1,68.8,23.1c8.8,3.1,16.8,3.3,25.5-0.5c15.2-6.7,30.6-12.6,46-18.8c5.3-2.1,10.6-4.7,16.1-6
		c8.6-2,17,3.7,18.5,12.3c0.8,4.4,0.4,9,0.4,13.5c0,64.9,0,129.8,0,194.6c0,20.1-1.6,22.3-20.2,29.6c-20.8,8.1-41.7,15.8-62.2,24.4
		c-7.1,3-13,2.8-20.2,0.3c-22.2-7.9-44.9-14.4-67-22.4c-10.2-3.7-19-3.7-29,0.8c-16.8,7.6-34.2,14.1-51.5,20.5
		c-20.1,7.5-27.7,2.3-27.8-18.6C2.7,225.1,2.9,191.7,2.9,158.3z M96,218.3c30,10.1,60.3,20.3,91.5,30.8c0-61.6,0-121.8,0-183.6
		c-29.9-10-60.3-20.1-91.5-30.6C96,96.5,96,156.7,96,218.3z"/>
</g>
</svg>
