<?xml version="1.0" encoding="utf-8"?>
<!-- Generator: Adobe Illustrator 22.0.1, SVG Export Plug-In . SVG Version: 6.00 Build 0)  -->
<svg version="1.1" xmlns="http://www.w3.org/2000/svg" xmlns:xlink="http://www.w3.org/1999/xlink" x="0px" y="0px"
	 viewBox="0 0 283.5 283.5" style="enable-background:new 0 0 283.5 283.5;" xml:space="preserve">
<style type="text/css">
	.st0{display:none;}
	.st1{display:inline;}
	.st2{fill:#4C4C4D;}
	.st3{display:inline;fill:#FFFFFF;}
	.st4{fill:#6FAEDF;}
	.st5{fill:#072442;}
	.st6{fill:#0E4B80;}
	.st7{fill:#1C64B0;}
</style>
<g id="Layer_1">
	<g class="st0">
		<path class="st1" d="M495.8,23.3c0,78.8,0,157.6,0,236.4c-2.3,3.2-3.9,7.3-6.9,9.3c-6.2,4.1-13,7.7-20,10.3
			c-6.2,2.3-13.1,2.8-19.7,4.2c-4.9,0-9.9,0-14.8,0c-1.7-0.4-3.5-0.8-5.2-1.1c-11.5-1.6-22.6-4.5-32.1-11.6
			c-5.4-4.1-8.5-9.2-8.5-16.4c0.1-75.1,0.1-150.3,0-225.4c0-6.3,2.1-11.4,7-15.1c3.8-2.9,7.8-5.6,12.2-7.4
			C429.3-1.9,451.2-2,473,5.1C482.8,8.3,491.1,13.6,495.8,23.3z"/>
	</g>
	<g>
		<path d="M149.1,283.5c-4.9,0-9.8,0-14.7,0c-0.7-0.1-1.3-0.3-2-0.4c-10.1-0.5-20.1-2.3-29.8-5.1C30.3,257.1-13,183.9,3.5,110.4
			C20.6,34.2,97.4-14.1,173.6,3.6C246.1,20.5,294.8,90.8,281.2,167c-6.2,34.7-23.4,63.1-50.8,85.3C209.7,269,186,279,159.6,282.3
			C156.1,282.8,152.6,283.1,149.1,283.5z M194.2,176.1c0.6-1.1,1-1.8,1.3-2.4c3.6-6.7,7.2-13.5,10.8-20.2c1.9-3.5,4.7-5.1,8.7-5.1
			c12.3,0.1,24.6,0,36.8,0c0.7,0,1.5,0,2.4,0c0.9-15.5-1.2-30.4-6.5-44.9c-8.1-22.2-21.7-40.2-41-53.8
			C168.5,22.4,116.7,22,78.1,48.6C58.5,62.2,44.4,80.1,36,102.4c-5.6,14.8-7.8,30.1-6.9,46c0.9,0,1.7,0,2.4,0c7.9,0,15.7,0,23.6,0
			c1.7,0,2.5-0.5,3.2-2c6-12.6,12-25.2,18.1-37.7c2.1-4.4,6.5-6.3,10.8-4.8c3.7,1.3,5.2,4.3,5.9,7.9c2.8,14.3,5.5,28.6,8.3,42.9
			c1,5.2,2,10.5,3,15.7c1-5.4,1.6-10.7,2.3-16.1c1.4-11.2,2.8-22.4,4.2-33.7c1.7-13.3,3.4-26.6,5.1-39.9c1-7.7,1.9-15.3,2.9-23
			c0.6-4.4,4.1-7.4,8.6-7.3c4.8,0.1,7.9,3.2,8.8,8.7c1.5,9.4,3.1,18.8,4.7,28.2c2.8,16.6,5.5,33.3,8.3,49.9c1,6,2,11.9,3.1,18.5
			c0.6-1.5,1-2.4,1.4-3.3c3-7.1,5.9-14.3,9-21.3c1.5-3.4,4.4-5.1,8.2-5c3.6,0.1,6.1,1.9,7.6,5.2c0.6,1.4,1.2,2.9,1.7,4.4
			C185,148.8,189.5,162.2,194.2,176.1z M129,115.2c-0.1,0-0.2,0-0.2,0c-0.2,0.9-0.4,1.9-0.5,2.8c-1.9,15.4-3.9,30.8-5.8,46.2
			c-2.4,19-4.8,38-7.3,57c-0.2,1.4-0.4,2.8-0.7,4.2c-0.9,4.8-3.9,7.7-8.2,7.7c-4.3,0.1-7.8-2.8-8.9-7.4c-0.7-3.2-1.2-6.5-1.9-9.8
			c-3.9-20.1-7.8-40.1-11.6-60.2c-1-5.3-2-10.5-3.1-16.2c-0.5,0.7-0.7,1.1-0.9,1.5c-2.9,6-5.9,12-8.6,18.2
			c-2.1,4.7-5.5,6.6-10.4,6.5c-9-0.1-18,0-27.1,0c-0.7,0-1.4,0-2.2,0c9.5,48.1,56.3,93,118.8,88.4c56.4-4.2,93.9-48.2,101.2-88.4
			c-0.7,0-1.4,0-2,0c-9.4,0-18.9,0-28.3,0c-1.7,0-2.5,0.6-3.2,2c-5.8,11.1-11.7,22.2-17.6,33.2c-1.9,3.7-4.7,5.8-9.2,5.2
			c-4.2-0.6-6.3-3.3-7.6-7c-2.4-7-4.7-14-7.1-21c-2.2-6.3-4.3-12.6-6.7-19.3c-0.7,1.6-1.3,2.8-1.9,4.1c-3.5,8.4-7.1,16.9-10.6,25.3
			c-1.3,3.2-3.5,5.5-7.1,6c-5.2,0.7-8.9-2.4-9.9-8.4C136.7,162.4,132.9,138.8,129,115.2z"/>
	</g>
	<g class="st0">
		<path class="st1" d="M182.2,36.7c0.2,1.3,0.5,2.6,0.5,4c0,18.7,0.1,37.3,0,56c0,2.7,0.9,3.6,3.3,4.3c31.5,8.9,63,17.9,94.4,26.9
			c1.1,0.3,2,0.9,3.1,1.3c0,0.2,0,0.4,0,0.7c-0.5,5-1.1,10-1.6,15.4c-25.7,3.7-51.4,7.4-78.2,11.2c3.9,1.9,6.9,3.8,10.2,4.8
			c6,1.7,7.6,5.3,7,11.3c-0.8,7.7-0.4,7.7-7.5,10.2c-9.2,3.3-18.4,6.6-27.6,9.7c-2.3,0.8-3.1,1.8-3,4.2c0.1,15.3,0.1,30.6,0.1,45.9
			c0,1.2,0,2.4,0,4.2c-5.5,0-10.7,0.1-15.9-0.1c-0.4,0-1.2-1.9-1.2-2.9c-0.1-9.9-0.1-19.8-0.1-29.7c0-7.9,0-15.7,0-23.6
			c0-3.9,4.6-10.4,8.2-11.7c6.8-2.4,13.5-4.8,20.9-7.4c-1.4-0.7-2.2-1.3-3.2-1.7c-6.2-2.9-12.3-5.9-18.6-8.7
			c-1.9-0.8-2.5-1.9-2.1-3.8c0.6-3.6,1.2-7.3,1.7-11c0.2-1.8,0.8-2.6,2.9-2.8c20.5-2.8,40.9-5.8,61.4-8.7c0.4-0.1,0.8-0.2,1.4-0.9
			c-0.9-0.3-1.9-0.7-2.8-1c-20-5.7-39.9-11.4-59.9-17c-5.3-1.5-9.9-7.6-9.9-13.2c0-20.6,0-41.2,0-61.7c0-1.3,0.3-2.6,0.5-4
			C171.4,36.7,176.8,36.7,182.2,36.7z"/>
		<path class="st1" d="M0,152.8c0.5-4.6,1-9.1,1.6-14.2c25.5-3.7,51.2-7.3,76.9-11c0.1-0.2,0.1-0.5,0.2-0.7c-3.9-1.9-7.8-4-11.9-5.6
			c-3.3-1.3-4.8-2.9-4.1-6.7c0.7-3.6-0.6-8.2,1.3-10.8c1.7-2.4,6.3-2.8,9.7-4c8.1-2.9,16.3-5.7,24.4-8.6c1.6-0.5,2.7-1.1,2.7-3.2
			c-0.1-17.1-0.1-34.2-0.2-51.3c5.6,0,11.2,0,16.9,0c0.1,1.2,0.3,2.4,0.3,3.7c0,17.5,0,35.1,0,52.6c0,4.6-4.4,10.7-8.8,12.3
			c-6.6,2.4-13.3,4.7-20.5,7.2c7.6,3.6,14.6,7,21.6,10.1c2.3,1,2.9,2.3,2.5,4.6c-0.7,3.5-1.3,7.1-1.7,10.6c-0.2,1.8-1,2.4-2.7,2.7
			c-21.1,2.9-42.2,6-64.3,9.1c1.6,0.6,2.4,1,3.3,1.2c20.5,5.9,40.9,11.7,61.4,17.6c4.1,1.2,9.2,7.6,9.3,11.6c0,21.2,0,42.5,0,63.7
			c0,0.9-0.1,1.8-0.2,2.9c-5.6,0-11,0-16.9,0c0-1.4,0-2.7,0-4c0-18.2-0.1-36.4,0.1-54.6c0-3.4-1.1-4.6-4.2-5.4
			c-31.1-8.7-62.1-17.6-93.1-26.5c-1.2-0.3-2.3-0.8-3.5-1.3C0,154.1,0,153.4,0,152.8z"/>
		<path class="st1" d="M133.3,37.6c5.6,0,10.9,0,16.6,0c0,69.3,0,138.7,0,208.3c-5.4,0-10.9,0-16.6,0
			C133.3,176.5,133.3,107.1,133.3,37.6z"/>
	</g>
	<g class="st0">
		<path class="st1" d="M66,139.2c-1.7,3.5-3.1,6.5-4.6,9.5c-2.5,5.2-5.1,10.4-7.5,15.7c-2.1,4.6-5.7,7.2-10.6,7.2
			c-14.2,0.1-28.5,0-42.7,0c-0.1,0-0.3-0.1-0.6-0.2c0-7,0-14,0-21.3c1.1,0,2.2,0,3.3,0c10.4,0,20.9,0,31.3,0c1.8,0,2.7-0.6,3.4-2.2
			c7.5-15.7,15-31.4,22.5-47c2.6-5.4,7.8-7.9,13.1-6.3c4.4,1.3,6.7,4.6,7.5,9c2.6,12.9,5.1,25.9,7.6,38.8c2.3,11.6,4.5,23.2,7,34.8
			c0.9-6.9,1.8-13.8,2.7-20.7c1.6-12.7,3.2-25.3,4.8-38c1.6-12.8,3.2-25.7,4.8-38.5c1.4-11.1,2.8-22.2,4.3-33.3
			c0.4-3.1,0.8-6.2,1.2-9.2c0.7-5,4.4-8.7,9.1-9.1c5.7-0.5,10.4,2.2,11.7,7.4c1.3,5.3,2,10.7,3,16.1c3.3,19.6,6.6,39.3,9.9,58.9
			c2.6,15.8,5.3,31.6,8,48.1c0.7-1.7,1.3-2.9,1.8-4.1c3.7-8.8,7.3-17.7,11.2-26.4c3.3-7.2,12.9-8.5,17.8-2.4
			c1.3,1.6,2.2,3.8,2.9,5.8c6,17.3,11.9,34.6,17.9,52.4c0.6-0.9,1-1.6,1.4-2.2c4.4-8.2,8.8-16.4,13.1-24.7c2.6-5,6.2-7.3,12.1-7.2
			c15.7,0.3,31.5,0.1,47.2,0.1c0.9,0,1.8,0,2.9,0c0,7.2,0,14.2,0,21.6c-1.1,0-2.1,0-3.1,0c-13.4,0-26.8,0-40.2,0
			c-1.9,0-2.8,0.6-3.7,2.3c-7.3,14-14.7,27.9-22.2,41.9c-2.1,3.9-5.1,6.4-9.9,6.1c-5.1-0.3-8.4-2.5-10.2-7.5
			c-3.4-9.8-6.7-19.7-10.1-29.5c-2.4-7-4.8-14-7.4-21.4c-0.7,1.4-1.3,2.5-1.8,3.6c-4.6,11-9.2,22-13.9,32.9
			c-2.9,6.7-9.2,9.1-15.1,6.1c-3.6-1.8-5.1-5-5.7-8.7c-2.1-12.3-4.1-24.7-6.1-37c-2.6-15.9-5.2-31.8-7.8-47.7
			c-0.1-0.9-0.3-1.8-0.8-2.8c-0.3,1.9-0.7,3.8-0.9,5.7c-2.7,20.9-5.4,41.8-8,62.8c-2.4,19.3-4.8,38.5-7.2,57.8
			c-0.4,3.3-0.9,6.7-1.4,10c-0.7,4.9-4.3,8.7-8.7,9.2c-5.4,0.7-10.2-1.8-11.8-6.9c-1.2-3.7-1.8-7.7-2.6-11.5
			c-3.7-19-7.4-38.1-11-57.1c-2.5-13-4.9-26.1-7.4-39.1C66.4,140.2,66.3,140,66,139.2z"/>
	</g>
</g>
<g id="Layer_2" class="st0">
	<rect class="st2" width="283.5" height="283.5"/>
	<circle class="st3" cx="142.1" cy="142.1" r="141.4"/>
	<g class="st1">
		<path class="st4" d="M247.9,97.7c-11.8,7-22.8,13.5-33.9,20.1c-22.7,13.4-45.5,26.7-68.2,40.2c-3.3,2-5.8,2-9.1,0
			c-32.8-19.6-65.6-39.1-98.4-58.5c-0.6-0.4-1.2-0.8-2.5-1.7c9.7-5.7,19-11.2,28.2-16.7c24.6-14.5,49.3-29,73.9-43.5
			c2.8-1.6,5.1-2.3,8.1-0.4C179.6,57.1,213.2,77,247.9,97.7z"/>
		<path class="st5" d="M247.4,184.3c-0.1,1.9-1.8,2.2-3,2.9c-33.2,19.6-66.5,39.2-99.8,58.7c-1.4,0.8-2.8,1.9-4.6,1.6
			c-28-16.7-56-33.4-83.9-50.1c-6.8-4-13.5-8.1-20.8-12.4c6.6-3.9,12.6-7.4,18.8-11c29,17.2,58,34.4,87,51.6
			c29.4-17.3,58.6-34.4,87.9-51.7C235.3,177.4,241.4,180.8,247.4,184.3z"/>
		<path class="st6" d="M229.3,144.8c6.3,3.7,12.1,7.2,18.7,11.1c-35.8,21.1-71.1,41.9-106.7,62.8c-35-20.8-70-41.6-105.7-62.7
			c6.4-3.8,12.3-7.3,18.6-11c28.9,17.2,57.9,34.3,87.1,51.6C170.6,179.3,199.8,162.2,229.3,144.8z"/>
		<path class="st7" d="M35.6,126.8c6.6-3.9,12.6-7.4,18.7-11c29,17.2,57.9,34.3,87,51.6c29.3-17.2,58.7-34.5,88.1-51.8
			c6.2,3.7,12.1,7.2,18.6,11.1c-36,21.2-71.2,41.9-106.7,62.8C106.2,168.7,71.3,148,35.6,126.8z"/>
	</g>
</g>
</svg>
