<?xml version="1.0" encoding="utf-8"?>
<!-- Generator: Adobe Illustrator 22.0.1, SVG Export Plug-In . SVG Version: 6.00 Build 0)  -->
<svg version="1.1" id="Layer_1" xmlns="http://www.w3.org/2000/svg" xmlns:xlink="http://www.w3.org/1999/xlink" x="0px" y="0px"
	 viewBox="0 0 283.5 283.5" style="enable-background:new 0 0 283.5 283.5;" xml:space="preserve">
<g>
	<path d="M12.5,215c-1-10.5-1.7-22.3-3.4-34c-1.7-11.1-0.9-21.6,6.7-30.1c9.7-10.7,10.9-23.1,9-36.4c-5-36.2-7.8-31.4,21.1-64.7
		c25.4-29.2,25.8-29.4,63.6-27.6c16.4,0.8,31.7-1.4,46.7-7.7c6.5-2.8,13.7-4.3,19.7-7.8c14.6-8.3,28.3-5.2,42.3,1.2
		c12.2,5.6,20.8,13.6,19.9,28.3c-0.5,8.5,4.2,13.2,11.4,16c17,6.7,20.9,14.6,15.7,33.7c-2.3,8.3,0.7,15.1,3.1,22.2
		c3.7,10.8,6.9,21.3-2.2,31.5c-5.5,6.1-1.1,12.6,1.9,18.1c7.9,14.2,8.1,29.4,6.5,44.8c-0.5,4.5-1.4,10.5-4.4,13.1
		c-14.4,12.6-26.4,29.1-46.6,33.3c-17.9,3.7-36.1,6.4-53.9,10.4c-14.3,3.2-28.3,7.7-42.3,12c-6.7,2.1-13.1,5.3-19.8,7.5
		c-11.6,3.9-23.1,4.1-34.7-0.4c-14.9-5.7-29.9-10.9-44.7-16.9c-13.4-5.4-17.7-13-16.9-27.6C11.3,228.1,11.9,222.2,12.5,215z
		 M203.9,38.6c-14.4-7.2-14.7-7.7-27.6-1.6c-23.5,11.1-47.7,17.7-73.8,13.7c-13.9-2.1-22.8,3.6-31.9,13.7
		C57.3,79,48.1,93.2,53.1,114.5c2.7,11.7,3.4,25.7-5.1,35.9c-10,11.9-9.6,24.8-8,38.4c0.8,7,1.7,14.1,2.6,21.1
		c2.1,17.9,14.5,26.1,31.2,19.5c8.7-3.4,16.9-8.6,24.6-13.9c6.3-4.4,12.8-6.7,19.9-4.1c10.1,3.7,15.9-1,20.3-8.9
		c2.6-4.6,6-9.4,6.5-14.4c1.2-12.3,9.2-16.7,19.3-20.2c10.6-3.6,21.2-7.5,31.3-12.2c12.1-5.6,14-9.3,11.3-22.3
		c-2.2-10.9-1.5-20.9,3.1-31.1c2.1-4.7,3.7-10.4,3-15.3C210.7,70.8,207.1,54.8,203.9,38.6z"/>
	<path d="M124.7,95.3c0.2-0.3,1.8-5,5.1-7.3c7.7-5.3,16.1-9.6,24.4-13.9c8.8-4.6,12.7-2.7,15.5,6.7c1.8,6.1,3.9,12.2,6.1,18.1
		c4.7,12.7,2.8,18-8.4,24.9c-7.9,5-15.4,10.6-23.1,15.9c-7.6,5.2-14.8,2.9-15.9-5.4C126.9,122.8,126.2,111.1,124.7,95.3z"/>
	<path d="M63.6,169c6.7-9.4,12.4-17.3,18.4-25.7c14,0,19.2,10.4,25.6,20.6c-6.3,8.7-12,16.6-18.1,25C77.6,186.4,69.3,180.1,63.6,169
		z"/>
</g>
</svg>
