<?xml version="1.0" encoding="utf-8"?>
<!-- Generator: Adobe Illustrator 22.0.1, SVG Export Plug-In . SVG Version: 6.00 Build 0)  -->
<svg version="1.1" id="Layer_1" xmlns="http://www.w3.org/2000/svg" xmlns:xlink="http://www.w3.org/1999/xlink" x="0px" y="0px"
	 viewBox="0 0 283.5 283.5" style="enable-background:new 0 0 283.5 283.5;" xml:space="preserve">
<g>
	<path d="M-486.4-431.5c0-18.1,0.2-36.2-0.1-54.3c-0.1-6.4,2.1-10.2,8.1-12.5c12-4.5,24-9.2,35.9-14.2c3.8-1.6,6.9-1.5,10.7-0.1
		c12.1,4.3,24.4,8,36.6,12.3c4.7,1.6,8.9,1.8,13.5-0.3c8.1-3.5,16.3-6.7,24.5-10c2.8-1.1,5.6-2.5,8.5-3.2c4.6-1.1,9,2,9.8,6.6
		c0.4,2.3,0.2,4.8,0.2,7.2c0,34.5,0,69,0,103.5c0,10.7-0.8,11.9-10.8,15.7c-11,4.3-22.2,8.4-33.1,13c-3.8,1.6-6.9,1.5-10.7,0.1
		c-11.8-4.2-23.9-7.7-35.6-11.9c-5.4-2-10.1-1.9-15.4,0.4c-8.9,4-18.2,7.5-27.4,10.9c-10.7,4-14.7,1.2-14.8-9.9
		C-486.5-396-486.4-413.8-486.4-431.5z M-436.8-399.6c15.9,5.4,32,10.8,48.7,16.4c0-32.8,0-64.7,0-97.6c-15.9-5.3-32-10.7-48.7-16.3
		C-436.8-464.4-436.8-432.4-436.8-399.6z"/>
</g>
<g>
	<path d="M115.6,29.9c9.5,9.5,18.6,18.6,28,28c36.3,0,72.9,0.1,109.6,0c12.4,0,22.9,4.4,27.3,16.6c1.1,3.1,1.1,6.4,1.2,9.6
		c0.2,47.7,0.2,95.5,0.1,143.2c0,14.7-11.7,26.4-26.4,26.4c-75.7,0.1-151.4,0.1-227.1,0C13.6,253.6,2.1,241.9,2,227
		c-0.1-56.5,0.3-113-0.3-169.4c-0.2-14,13.4-28,27.2-27.8C58,30.2,87,29.9,115.6,29.9z M253.1,225.4c0-47.3,0-93.2,0-139
		c-53.3-2.2-208.3-1.4-222.6,1.1c0,45.9,0,91.8,0,137.9C104.9,225.4,178.7,225.4,253.1,225.4z"/>
</g>
</svg>
