<?xml version="1.0" encoding="utf-8"?>
<!-- Generator: Adobe Illustrator 22.0.1, SVG Export Plug-In . SVG Version: 6.00 Build 0)  -->
<svg version="1.1" id="Layer_1" xmlns="http://www.w3.org/2000/svg" xmlns:xlink="http://www.w3.org/1999/xlink" x="0px" y="0px"
	 viewBox="0 0 283.5 283.5" style="enable-background:new 0 0 283.5 283.5;" xml:space="preserve">
<g>
	<path d="M226.3,268.3c0-10,0-18,0-27.1c8.9-0.6,17.3-1.2,26.6-1.9c0-8.6,0-16.6,0-25.7c-3.7-0.9-8-1.9-12.6-3c0-8.1,0-15.6,0-24.4
		c4-1.3,8.5-2.8,13.1-4.3c0-8.2,0-15.8,0-25.2c-8.5-0.5-17-1-26.6-1.6c0-8.6,0-17,0-26.6c8.5-0.5,16.9-1,26.1-1.6
		c0-8.8,0-16.8,0-25.9c-4-0.9-8.2-1.9-12.1-2.8c-2.2-24.7-2.2-24.7,12.1-28.5c0-7.8,0-15.8,0-25.7c-8.2,0-16.7,0-26.2,0
		c0-10.2,0-18.6,0-28.9c8.3,0,16.3-0.2,24.3,0c20.3,0.6,30.6,10.2,30.7,30.2c0.3,64.3,0.3,128.7,0,193c-0.1,19.3-10.2,29-29.2,29.9
		C244.5,268.7,236.4,268.3,226.3,268.3z"/>
	<path d="M112,281.7c-9.2,0-17.2,0-26.1,0c0-93.6,0-186.4,0-279.9c8.9,0,16.9,0,26.1,0C112,94.7,112,187.5,112,281.7z"/>
	<path d="M1.4,225c0-56.2,0-111.1,0-166.8c8.8,0,16.8,0,26.1,0c0,55,0,110.3,0,166.8C19.4,225,11,225,1.4,225z"/>
	<path d="M43.6,100.2c9,0,17,0,26.1,0c0,27.4,0,54.5,0,82.7c-8.5,0-16.9,0-26.1,0C43.6,155.6,43.6,129,43.6,100.2z"/>
	<path d="M128.2,100.4c8.7,0,16.7,0,25.9,0c0,27,0,54.1,0,82.4c-8.2,0-16.6,0-25.9,0C128.2,155.5,128.2,128.3,128.2,100.4z"/>
	<path d="M277.2,126.6c0,10.1,0,19.3,0,30.1c-16.6,0-33.4,0-50.9,0c0-9.5,0-19.2,0-30.1C243.2,126.6,260,126.6,277.2,126.6z"/>
	<path d="M277.2,239.3c0,5.4,0,10.4,0,16.1c-16.6,0-33.4,0-50.9,0c0-5.1,0-10.3,0-16.1C243.2,239.3,260,239.3,277.2,239.3z"/>
	<path d="M275.5,181.7c0,10.9,0,20.8,0,32.4c-12.2,0-24.5,0-37.2,0c0-10.2,0-20.7,0-32.4C250.6,181.7,262.9,181.7,275.5,181.7z"/>
	<path d="M275.5,69.2c0,10.9,0,20.8,0,32.4c-12.2,0-24.5,0-37.2,0c0-10.2,0-20.7,0-32.4C250.6,69.2,262.9,69.2,275.5,69.2z"/>
</g>
</svg>
