<?xml version="1.0" encoding="utf-8"?>
<!-- Generator: Adobe Illustrator 22.0.1, SVG Export Plug-In . SVG Version: 6.00 Build 0)  -->
<svg version="1.1" id="Layer_1" xmlns="http://www.w3.org/2000/svg" xmlns:xlink="http://www.w3.org/1999/xlink" x="0px" y="0px"
	 viewBox="0 0 1024 1024" style="enable-background:new 0 0 1024 1024;" xml:space="preserve">
<path d="M320,42.7h-85.3c-11.8,0-21.3,9.6-21.3,21.3c0,11.8,9.5,21.3,21.3,21.3H320c11.8,0,21.3-9.6,21.3-21.3S331.8,42.7,320,42.7z
	 M576,42.7h-85.3c-11.8,0-21.3,9.6-21.3,21.3c0,11.8,9.5,21.3,21.3,21.3H576c11.8,0,21.3-9.6,21.3-21.3S587.8,42.7,576,42.7z
	 M320,704h-85.3c-11.8,0-21.3,9.6-21.3,21.3c0,11.8,9.6,21.3,21.3,21.3l0,0H320c11.8,0,21.3-9.6,21.3-21.3
	C341.3,713.6,331.8,704,320,704z M576,704h-85.3c-11.8,0-21.3,9.6-21.3,21.3c0,11.8,9.6,21.3,21.3,21.3H576
	c11.8,0,21.3-9.6,21.3-21.3C597.3,713.6,587.8,704,576,704z M42.7,576c0,11.8,9.6,21.3,21.3,21.3c11.8,0,21.3-9.5,21.3-21.3v-85.3
	c0-11.8-9.6-21.3-21.3-21.3s-21.3,9.6-21.3,21.3C42.7,490.7,42.7,576,42.7,576z M64,341.3c11.8,0,21.3-9.6,21.3-21.3l0,0v-85.3
	c0-11.8-9.6-21.3-21.3-21.3s-21.3,9.6-21.3,21.3l0,0V320C42.7,331.8,52.2,341.3,64,341.3C64,341.3,64,341.3,64,341.3z M746.7,469.3
	c-11.8,0-21.3,9.6-21.3,21.3V576c0,11.8,9.6,21.3,21.3,21.3c11.8,0,21.3-9.6,21.3-21.3v-85.3C768,478.9,758.4,469.3,746.7,469.3
	L746.7,469.3z M768,234.7c0-11.8-9.6-21.3-21.3-21.3c-11.8,0-21.3,9.6-21.3,21.3V320c0,11.8,9.6,21.3,21.3,21.3
	c11.8,0,21.3-9.6,21.3-21.3V234.7L768,234.7z M704,128h85.3c11.8,0,21.3-9.6,21.3-21.3V21.3c0-11.8-9.6-21.3-21.3-21.3H704
	c-11.8,0-21.3,9.6-21.3,21.3v85.3C682.7,118.4,692.2,128,704,128z M106.7,0H21.3C9.6,0,0,9.6,0,21.3c0,0,0,0,0,0v85.3
	C0,118.4,9.6,128,21.3,128h85.3c11.8,0,21.3-9.6,21.3-21.3l0,0V21.3C128,9.6,118.4,0,106.7,0z M106.7,661.3H21.3
	C9.6,661.3,0,670.9,0,682.7V768c0,11.8,9.6,21.3,21.3,21.3h85.3c11.8,0,21.3-9.6,21.3-21.3v-85.3C128,670.9,118.4,661.3,106.7,661.3
	L106.7,661.3z M1013,770.7L629,557.4c-10.2-5.8-23.2-2.3-29,7.9c-3.3,5.7-3.7,12.6-1.2,18.7l170.7,426.7c3.2,8,10.9,13.3,19.5,13.4
	h0.3c8.5,0,16.3-5.1,19.6-12.9l60.6-141.5l141.5-60.6c10.8-4.7,15.8-17.3,11.1-28.1C1020.4,776.6,1017.1,773,1013,770.7L1013,770.7z
	"/>
</svg>
