<?xml version="1.0" encoding="utf-8"?>
<!-- Generator: Adobe Illustrator 22.0.1, SVG Export Plug-In . SVG Version: 6.00 Build 0)  -->
<svg version="1.1" id="Layer_1" xmlns="http://www.w3.org/2000/svg" xmlns:xlink="http://www.w3.org/1999/xlink" x="0px" y="0px"
	 viewBox="0 0 283.5 283.5" style="enable-background:new 0 0 283.5 283.5;" xml:space="preserve">
<g>
	<path d="M178.6,74.6c-28.2,0-56.4-0.1-84.6,0.1c-10.5,0.1-17.5-2.3-17.2-14.9c0.3-12.1,7.6-13.4,17-13.4c57,0.1,113.9,0.1,170.9,0
		c9.8,0,16.3,2.3,16.3,14c0,11.6-6.2,14.3-16.1,14.2C236.1,74.5,207.3,74.6,178.6,74.6z"/>
	<path d="M177.8,155.9c-27.6,0-55.3-0.1-82.9,0c-9.8,0-18-0.6-18.1-13.9c-0.1-13,7.7-14.4,17.7-14.3c56.4,0.1,112.8,0.1,169.2,0
		c10.4,0,17.5,2.1,17.3,14.8c-0.3,12-7.5,13.5-16.9,13.5C235.4,155.8,206.6,155.9,177.8,155.9z"/>
	<path d="M178.9,208.9c27.6,0,55.3,0.1,82.9,0c10.2,0,19.4,0.1,19.2,14.6c-0.2,13.4-8.7,13.7-18.3,13.7c-55.8,0-111.7,0-167.5,0
		c-9.6,0-18.1-0.3-18.3-13.7c-0.2-14.4,9-14.6,19.2-14.6C123.6,209,151.3,208.9,178.9,208.9z"/>
	<path d="M43.8,59.3c0.2,13.3-7.6,21.6-20.4,21.8c-13.3,0.2-21-7.5-21-20.8c0.1-13.9,7-20.6,21-20.4C36.9,40,43.7,46.5,43.8,59.3z"
		/>
	<path d="M43.8,140.4c0.2,13.3-7.6,21.7-20.3,21.9c-13.3,0.2-21.1-7.5-21-20.7c0-13.9,6.9-20.6,21-20.5
		C36.8,121.2,43.6,127.7,43.8,140.4z"/>
	<path d="M43.8,224.2c-1,12.9-9.8,20.4-22.7,19.3c-13-1.1-19.7-9.4-18.5-23.1c1.1-13,9.2-19.2,23.4-17.9
		C38.5,203.5,44.8,211.2,43.8,224.2z"/>
</g>
</svg>
