<svg xmlns="http://www.w3.org/2000/svg" height="48" viewBox="0 -960 960 960" width="48"><path d="M480.294-333Q550-333 598.5-381.794t48.5-118.5Q647-570 598.206-618.5t-118.5-48.5Q410-667 361.5-618.206t-48.5 118.5Q313-430 361.794-381.5t118.5 48.5Zm-.412-71q-39.465 0-67.674-28.326Q384-460.652 384-500.118q0-39.465 28.326-67.674Q440.652-596 480.118-596q39.465 0 67.674 28.326Q576-539.348 576-499.882q0 39.465-28.326 67.674Q519.348-404 479.882-404ZM480-180q-143.61 0-260.805-79T37.145-467.077q-3.945-5.987-6.045-14.901-2.1-8.915-2.1-17.824 0-8.909 2.1-18.178 2.1-9.27 6.045-16.943 64.834-126.779 182.04-205.928Q336.39-820 480-820t260.815 79.149q117.206 79.149 182.04 205.928 3.945 7.673 6.045 16.588 2.1 8.914 2.1 17.823t-2.1 18.179q-2.1 9.269-6.045 15.256Q858-338 740.805-259 623.61-180 480-180Zm0-320Zm-.08 240q121.454 0 221.058-65.041T854-500q-53.418-109.918-152.943-174.959Q601.533-740 480.08-740q-121.454 0-221.558 65.041T105-500q53.418 109.918 153.443 174.959Q358.467-260 479.92-260Z"/></svg>