<?xml version="1.0" encoding="utf-8"?>
<!-- Generator: Adobe Illustrator 22.0.1, SVG Export Plug-In . SVG Version: 6.00 Build 0)  -->
<svg version="1.1" id="Layer_1" xmlns="http://www.w3.org/2000/svg" xmlns:xlink="http://www.w3.org/1999/xlink" x="0px" y="0px"
	 viewBox="0 0 283.5 283.5" style="enable-background:new 0 0 283.5 283.5;" xml:space="preserve">
<g>
	<path d="M4.5,265.2c0-62.4,0-123.4,0-185.5c24.6,0,48.7,0,74.9,0c0,12.8-0.4,25.7,0.1,38.6c1.7,42.6,43.2,70.8,83.3,57
		c24.1-8.3,40.8-30.8,41.8-57c0.5-12.5,0.1-25,0.1-39.7c13.1,0,25.4,0,37.7,0c11.9,0,23.8,0,36.7,0c0,62.5,0,123.9,0,186.6
		c-26.3,13.7-54.2,18.4-83.6,9.3c-7.8-2.4-14.8-2.7-22.6-0.2c-21,6.8-42,6.3-63.1-0.2c-5.5-1.7-12.5-2-17.9-0.2
		C61.6,283.5,33.1,279.1,4.5,265.2z M29.9,247c19.6,10.1,38.9,8.3,58.1,1.1c8.2-3.1,15.6-3.7,23.9-0.2c19.6,8.1,39.7,8.5,59.4,0.3
		c8.8-3.7,16.7-3.2,25.4,0.1c19.1,7.3,38.4,8.8,57.2-1.2c0-47.7,0-95,0-142.3c-8.4,0-15.9,0-24.3,0c0,5.7,0.2,10.3,0,14.9
		c-2.1,47.2-41,84.4-87.9,84.2c-46.9-0.1-85.4-37.6-87.3-84.9c-0.2-4.9,0-9.9,0-14.5c-9.6,0-16.8,0-24.5,0
		C29.9,152.1,29.9,198.9,29.9,247z"/>
	<path d="M117.6,40.4c0-12.6,0-23.9,0-36.1c16.3,0,32.1,0,48.7,0c0,8,0,15.5,0,24.1C150.3,32.4,134.4,36.3,117.6,40.4z"/>
	<path d="M141.8,153.7c-8.9-12.8-24.3-18.5-25-36.6c16.4-4.2,32.4-8.3,48.4-12.4C174.1,128.4,155.3,138.3,141.8,153.7z"/>
	<path d="M166.3,78.5c-15.9,4-31.4,7.8-48.2,12c0-8.1,0-15.4,0-24c15.5-3.9,31.3-8,48.2-12.2C166.3,62.3,166.3,69.4,166.3,78.5z"/>
</g>
</svg>
