<?xml version="1.0" encoding="utf-8"?>
<!-- Generator: Adobe Illustrator 22.0.1, SVG Export Plug-In . SVG Version: 6.00 Build 0)  -->
<svg version="1.1" id="Layer_1" xmlns="http://www.w3.org/2000/svg" xmlns:xlink="http://www.w3.org/1999/xlink" x="0px" y="0px"
	 viewBox="0 0 283.5 283.5" style="enable-background:new 0 0 283.5 283.5;" xml:space="preserve">
<g>
	<path d="M271.5,245.1c-12.6,27.9-42.6,43.4-71.2,36.9c-30.6-6.9-51.7-33-51.3-63.5c0.4-30,21.2-55.1,51.3-61.9
		c28.7-6.4,58.7,9.1,71.2,37c1,2.2,4.8,12.8,4.8,24.6C276.4,230,272.5,242.9,271.5,245.1z M254.4,207.1c-4.3-5.1-9.3-11.1-17.7-21.3
		c-9.9,12.7-18.9,24.5-28.1,36.3c-9.2-8.4-15.4-14-20.9-19.1c-7.1,5.7-13.3,10.6-16.6,13.3c13.9,13.9,26.2,26.1,37.1,36.9
		C222.8,238.7,239,222.5,254.4,207.1z"/>
	<path d="M148.8,154.7c-5.9,8.2-11.9,16.5-18.5,25.7c-26.9,0-54.7,0-83.7,0c0,8.5,0,16.2,0,25.7c24.5,0,49.4,0,74,0
		c2.7,17.9,5.1,34,7.7,51.4c-32.3,0-64.9,0.6-97.4-0.3c-14.7-0.4-23.2-11.3-23.5-27.4c-0.4-17.1-0.1-34.3-0.1-51.5
		c0-53.1,0-106.2,0-159.2c0-5.8,0-11.5,0-18.3c11.6,0.7,21.8-4.3,29.6,8c4.8,7.5,12.9,5.6,19.2-1C66-2.6,76.4-2.4,86.9,8.1
		c7,7.1,13.8,7,20.7-0.3c9.9-10.5,20.2-10.2,30.9,0.4c7.1,7,13.8,6.9,20.7-0.5c9.8-10.5,20-10.2,30.9,0.6c5.8,5.7,13.9,8.2,18.1,1.3
		C215.7-2.6,226,1,237.4,0.9c0,43.3,0,86.4,0,130.9c-33.9-8.4-63.1,1.1-88.9,23.3c0-8.3,0-16.7,0-25.1c-35.2,0-68.7,0-102,0
		c0,8.8,0,16.5,0,24.8C81.4,154.7,115.1,154.7,148.8,154.7z M46,89.5c52.5,0,103.1,0,153.2,0c0-8.9,0-16.6,0-23.9
		c-51.9,0-102.5,0-153.2,0C46,74.2,46,81.5,46,89.5z"/>
</g>
</svg>
